<?xml version="1.0" standalone="no"?>
<!DOCTYPE svg PUBLIC "-//W3C//DTD SVG 20010904//EN"
 "http://www.w3.org/TR/2001/REC-SVG-20010904/DTD/svg10.dtd">
<svg version="1.0" xmlns="http://www.w3.org/2000/svg"
 width="364.000000pt" height="47.000000pt" viewBox="0 0 364.000000 47.000000"
 preserveAspectRatio="xMidYMid meet">

<g transform="translate(0.000000,47.000000) scale(0.100000,-0.100000)"
fill="#000000" stroke="none">
<path d="M410 275 c0 -8 9 -15 19 -15 10 0 21 7 25 15 4 11 -1 15 -19 15 -16
0 -25 -6 -25 -15z"/>
<path d="M479 220 c-13 -38 -20 -72 -17 -76 16 -16 37 9 57 67 26 76 26 79 3
79 -14 0 -25 -17 -43 -70z"/>
<path d="M569 220 c-13 -38 -20 -72 -17 -76 16 -16 37 9 57 67 26 76 26 79 3
79 -14 0 -25 -17 -43 -70z"/>
<path d="M1467 283 c-14 -13 -6 -24 15 -21 27 4 36 28 11 28 -11 0 -23 -3 -26
-7z"/>
<path d="M2080 275 c0 -8 9 -15 19 -15 10 0 21 7 25 15 4 11 -1 15 -19 15 -16
0 -25 -6 -25 -15z"/>
<path d="M2802 228 c-26 -74 -27 -88 -7 -88 9 0 24 20 35 45 16 37 24 45 46
45 24 0 26 -3 21 -27 -3 -16 -9 -36 -12 -45 -5 -14 -2 -18 12 -18 14 0 25 13
36 42 22 54 9 72 -45 65 -36 -5 -38 -4 -32 19 5 19 2 24 -13 24 -15 0 -25 -15
-41 -62z"/>
<path d="M3010 275 c0 -8 9 -15 19 -15 10 0 21 7 25 15 4 11 -1 15 -19 15 -16
0 -25 -6 -25 -15z"/>
<path d="M193 263 c3 -10 11 -42 17 -70 9 -38 17 -53 28 -53 10 0 45 32 80 70
53 59 60 70 42 70 -13 0 -39 -19 -65 -47 l-43 -48 -7 48 c-6 41 -10 47 -32 47
-18 0 -23 -4 -20 -17z"/>
<path d="M931 218 c-26 -76 -26 -78 -1 -78 13 0 22 9 26 25 4 17 13 25 28 25
40 0 96 21 106 40 17 32 -12 50 -80 50 l-58 0 -21 -62z m115 30 c8 -13 -22
-38 -48 -38 -18 0 -25 29 -11 43 11 11 51 8 59 -5z"/>
<path d="M1874 265 c-4 -8 -12 -15 -20 -15 -8 0 -14 -4 -14 -10 0 -5 5 -10 10
-10 7 0 7 -6 0 -19 -18 -34 -12 -60 15 -67 14 -3 33 -3 42 1 16 6 16 8 -4 16
-26 10 -26 9 -13 43 7 19 17 26 35 26 14 0 25 5 25 10 0 6 -9 10 -20 10 -11 0
-20 7 -20 15 0 8 -7 15 -15 15 -9 0 -18 -7 -21 -15z"/>
<path d="M2453 261 c-87 -54 -20 -140 87 -111 65 17 96 74 61 109 -28 28 -104
28 -148 2z m115 -32 c2 -20 -4 -32 -26 -48 -34 -24 -53 -26 -70 -9 -35 35 3
91 57 86 31 -3 36 -7 39 -29z"/>
<path d="M389 223 c-21 -56 -23 -83 -5 -83 16 0 33 30 50 88 11 35 -31 30 -45
-5z"/>
<path d="M665 240 c-4 -6 12 -10 39 -10 25 0 46 -4 46 -10 0 -5 -18 -10 -39
-10 -48 0 -93 -31 -73 -51 7 -7 39 -14 71 -15 l59 -2 16 41 c15 39 15 43 -1
55 -20 14 -109 16 -118 2z m85 -44 c0 -12 -34 -36 -51 -36 -21 0 -26 25 -6 33
15 7 57 8 57 3z"/>
<path d="M1123 231 c-2 -9 -9 -26 -14 -39 -13 -34 -11 -52 7 -52 9 0 22 17 31
40 13 33 22 41 50 46 54 10 47 21 -13 21 -42 0 -57 -4 -61 -16z"/>
<path d="M1256 229 c-35 -27 -31 -59 8 -78 26 -12 36 -12 70 0 51 18 72 62 41
85 -28 21 -88 17 -119 -7z m91 -14 c7 -19 -24 -55 -47 -55 -23 0 -33 26 -20
51 13 23 58 26 67 4z"/>
<path d="M1425 240 c-3 -5 1 -10 9 -10 19 0 19 4 0 -53 -13 -38 -20 -47 -39
-47 -13 0 -27 -5 -30 -10 -4 -6 9 -10 33 -10 40 0 64 17 75 55 3 11 10 35 15
53 11 32 10 32 -23 32 -19 0 -37 -4 -40 -10z"/>
<path d="M1542 238 c-26 -13 -39 -52 -23 -72 22 -26 131 -30 131 -4 0 5 -16 6
-35 2 -22 -4 -41 -2 -50 6 -27 22 -16 30 39 30 59 0 80 15 51 37 -22 15 -81
16 -113 1z m83 -18 c-3 -5 -19 -10 -36 -10 -16 0 -29 5 -29 10 0 6 16 10 36
10 21 0 33 -4 29 -10z"/>
<path d="M1712 238 c-29 -14 -40 -55 -19 -75 19 -19 92 -22 109 -5 11 11 7 12
-23 7 -26 -5 -39 -2 -49 10 -21 26 0 50 46 52 59 2 60 3 44 13 -20 13 -79 11
-108 -2z"/>
<path d="M2059 223 c-21 -56 -23 -83 -5 -83 16 0 33 30 50 88 11 35 -31 30
-45 -5z"/>
<path d="M2148 221 c-20 -54 -22 -81 -4 -81 10 0 24 17 36 45 16 37 24 45 46
45 24 0 26 -3 21 -27 -3 -16 -9 -36 -13 -46 -5 -15 -3 -18 16 -15 15 2 26 15
36 43 18 53 7 64 -68 63 -55 -1 -60 -3 -70 -27z"/>
<path d="M2658 239 c-35 -20 -15 -49 33 -49 11 0 19 -7 19 -16 0 -17 -33 -16
-72 1 -13 5 -18 3 -18 -8 0 -34 112 -29 134 6 13 21 -5 37 -41 37 -12 0 -25 5
-29 11 -5 9 6 10 40 7 32 -4 46 -2 43 6 -5 15 -87 19 -109 5z"/>
<path d="M2989 223 c-21 -56 -23 -83 -5 -83 16 0 33 30 50 88 11 35 -31 30
-45 -5z"/>
<path d="M3078 221 c-20 -54 -22 -81 -4 -81 10 0 24 17 36 45 16 37 24 45 46
45 28 0 27 3 8 -67 -5 -18 -2 -23 13 -23 13 0 23 13 33 43 12 35 20 43 44 45
30 4 31 0 11 -65 -6 -19 -3 -23 13 -23 25 0 58 83 39 98 -7 5 -61 9 -120 9
-108 0 -109 0 -119 -26z"/>
<path d="M3375 240 c-4 -6 12 -10 39 -10 25 0 46 -4 46 -10 0 -5 -18 -10 -39
-10 -48 0 -93 -31 -73 -51 7 -7 39 -14 71 -15 l59 -2 16 40 c12 31 13 45 5 55
-13 15 -115 18 -124 3z m70 -60 c-21 -23 -55 -27 -55 -6 0 16 15 24 49 25 23
1 24 0 6 -19z"/>
</g>
</svg>
